<svg width="100" height="100" viewBox="0 0 100 100" fill="none" xmlns="http://www.w3.org/2000/svg">
<rect width="100" height="100" rx="26" fill="#334049"/>
<path d="M15.1081 67V32.0154H30.2514C33.3834 32.0154 36.0822 32.5319 38.3479 33.5648C40.6135 34.5643 42.3628 36.0137 43.5956 37.9128C44.8283 39.812 45.4447 42.0777 45.4447 44.7098C45.4447 47.3087 44.8283 49.5577 43.5956 51.4569C42.3628 53.3227 40.6135 54.7554 38.3479 55.755C36.0822 56.7545 33.3834 57.2543 30.2514 57.2543H19.6061L23.2046 53.7059V67H15.1081ZM37.3483 67L28.6022 54.3056H37.2484L46.0944 67H37.3483ZM23.2046 54.6055L19.6061 50.8071H29.8016C32.3005 50.8071 34.1664 50.2741 35.3992 49.2079C36.632 48.1083 37.2484 46.609 37.2484 44.7098C37.2484 42.7774 36.632 41.278 35.3992 40.2118C34.1664 39.1456 32.3005 38.6125 29.8016 38.6125H19.6061L23.2046 34.7642V54.6055ZM51.8595 67V32.0154H67.7525C71.5508 32.0154 74.8993 32.7485 77.798 34.2145C80.6967 35.6472 82.9624 37.663 84.595 40.2618C86.2276 42.8607 87.0439 45.9426 87.0439 49.5077C87.0439 53.0395 86.2276 56.1215 84.595 58.7536C82.9624 61.3525 80.6967 63.3849 77.798 64.8509C74.8993 66.2836 71.5508 67 67.7525 67H51.8595ZM59.9559 60.3529H67.3526C69.6849 60.3529 71.7007 59.9198 73.4 59.0535C75.1325 58.1539 76.4653 56.8878 77.3982 55.2552C78.3644 53.6226 78.8476 51.7068 78.8476 49.5077C78.8476 47.2754 78.3644 45.3596 77.3982 43.7603C76.4653 42.1276 75.1325 40.8782 73.4 40.0119C71.7007 39.1123 69.6849 38.6625 67.3526 38.6625H59.9559V60.3529Z" fill="white"/>
</svg>
